# xmcd
#
# Track frame offsets: 
#        150
#        16754
#        33542
#        66196
#
# Disc length: 1865 seconds
#
# Revision: 1
# Processed by: cddbd v1.5.2PL0 Copyright (c) Steve Scherf et al.
# Submitted via: ExactAudioCopy v1.0b3
#
DISCID=2a074704
DTITLE=The Brand New Heavies - Allabouthefunk (bonus disc)
DYEAR=2004
DGENRE=Soul
TTITLE0=Boogie (Street Version)
TTITLE1=Boogie (Jiggy Joint Remix)
TTITLE2=Boogie (Blacksmith R&B Rub)
TTITLE3=Boogie Video
EXTD=
EXTT0=
EXTT1=
EXTT2=
EXTT3=
PLAYORDER=
